<?xml version="1.0" encoding="utf-8"?>
<!-- Generator: Adobe Illustrator 14.0.0, SVG Export Plug-In . SVG Version: 6.00 Build 43363)  -->
<!DOCTYPE svg PUBLIC "-//W3C//DTD SVG 1.1//EN" "http://www.w3.org/Graphics/SVG/1.1/DTD/svg11.dtd">
<svg version="1.1" id="Ebene_1" xmlns="http://www.w3.org/2000/svg" xmlns:xlink="http://www.w3.org/1999/xlink" x="0px" y="0px"
	 width="510.24px" height="97.48px" viewBox="0 0 510.24 97.48" enable-background="new 0 0 510.24 97.48" xml:space="preserve">
<g>
	<path fill="#1B171B" d="M484.74,70.094c0.315-3.187,2.381-7.873,7.471-7.873c5.561,0,6.836,4.928,6.836,7.873H484.74z
		 M509.844,78.348c0.162-0.874,0.396-2.699,0.396-4.767c0-9.62-4.759-19.382-17.316-19.382c-13.512,0-19.623,10.882-19.623,20.736
		c0,12.159,7.543,19.784,20.744,19.784c5.242,0,10.092-0.798,14.053-2.461l-1.586-8.184c-3.25,1.113-6.59,1.671-10.721,1.671
		c-5.646,0-10.656-2.382-10.976-7.399L509.844,78.348L509.844,78.348z M453.756,76.601c0,0.965-0.086,1.916-0.24,2.79
		c-0.719,3.419-3.58,5.8-7.076,5.8c-5.01,0-8.274-4.129-8.274-10.734c0-6.117,2.785-11.043,8.348-11.043
		c3.742,0,6.369,2.706,7.09,5.878c0.154,0.721,0.154,1.594,0.154,2.233L453.756,76.601L453.756,76.601z M453.756,37.433v21.053
		h-0.154c-1.764-2.615-5.414-4.363-10.264-4.363c-9.303,0-17.479,7.619-17.396,20.735c0,12.08,7.38,19.938,16.593,19.938
		c5.02,0,9.791-2.22,12.172-6.512h0.231l0.48,5.638h10.719c-0.16-2.62-0.315-7.229-0.315-11.594V37.433H453.756z M413.623,94.798
		c4.362,0,7.219-3.094,7.219-7.309c-0.078-4.44-2.934-7.38-7.063-7.38c-4.21,0-7.148,3.017-7.148,7.388
		C406.631,91.704,409.569,94.798,413.623,94.798 M339.166,93.924h11.75V71.277c0-1.036,0.076-2.141,0.471-3.1
		c0.728-1.91,2.553-4.295,5.652-4.295c3.897,0,5.646,3.343,5.646,8.186v21.854h11.75V71.201c0-1.036,0.154-2.228,0.396-3.102
		c0.887-2.306,2.791-4.217,5.651-4.217c3.898,0,5.726,3.266,5.726,8.903v21.137h11.748V71.039c0-11.68-5.631-16.916-13.104-16.916
		c-2.86,0-5.244,0.711-7.393,1.902c-1.91,1.114-3.58,2.699-5.09,4.765h-0.16c-1.664-4.052-5.556-6.667-10.631-6.667
		c-6.611,0-10.107,3.649-11.777,6.188h-0.232l-0.479-5.236h-10.248c0.162,3.503,0.324,7.549,0.324,12.398L339.166,93.924
		L339.166,93.924z M311.508,62.777c5.482,0,7.711,5.879,7.711,11.603c0,7.084-2.945,11.764-7.711,11.764
		c-5.172,0-7.949-5.004-7.949-11.688C303.557,68.733,305.785,62.777,311.508,62.777 M311.901,54.123
		c-12.561,0-20.813,8.015-20.813,20.65c0,12.561,8.731,20.023,20.096,20.023c10.414,0,20.502-6.512,20.502-20.734
		C331.686,62.298,323.744,54.123,311.901,54.123 M286.069,84.001c-1.824,0.796-4.053,1.269-6.914,1.269
		c-5.879,0-10.649-3.806-10.649-10.89c-0.076-6.357,4.053-10.89,10.412-10.89c3.178,0,5.327,0.558,6.758,1.191l1.903-8.974
		c-2.536-0.952-6.041-1.509-9.213-1.509c-14.463,0-22.244,9.29-22.244,20.658c0,12.158,8.021,19.862,20.572,19.862
		c4.604,0,8.664-0.798,10.808-1.825L286.069,84.001z M221.635,92.021c2.938,1.586,7.463,2.775,12.538,2.775
		c11.136,0,16.773-5.32,16.773-12.623c-0.083-5.646-3.101-9.459-10.486-12.01c-4.767-1.664-6.288-2.621-6.288-4.523
		c0-1.911,1.677-3.104,4.624-3.104c3.256,0,6.667,1.271,8.416,2.221l2.064-8.338c-2.383-1.19-6.351-2.298-10.875-2.298
		c-9.628,0-15.816,5.477-15.816,12.785c-0.077,4.616,3.017,8.986,11.116,11.688c4.46,1.509,5.652,2.459,5.652,4.53
		c0,1.988-1.509,3.181-5.181,3.181c-3.566,0-8.177-1.51-10.396-2.862L221.635,92.021z M202.084,76.601
		c0,0.965-0.078,1.916-0.239,2.79c-0.712,3.419-3.574,5.8-7.07,5.8c-5.012,0-8.273-4.129-8.273-10.734
		c0-6.117,2.791-11.043,8.352-11.043c3.743,0,6.358,2.706,7.069,5.878c0.163,0.721,0.163,1.594,0.163,2.233L202.084,76.601
		L202.084,76.601z M202.084,37.433v21.053h-0.163c-1.748-2.615-5.399-4.363-10.248-4.363c-9.304,0-17.48,7.619-17.396,20.735
		c0,12.08,7.38,19.938,16.591,19.938c5.019,0,9.784-2.22,12.166-6.512h0.24l0.479,5.638h10.72c-0.162-2.62-0.317-7.229-0.317-11.594
		V37.433H202.084z M143.744,70.094c0.317-3.187,2.391-7.873,7.479-7.873c5.562,0,6.844,4.928,6.844,7.873H143.744z M168.864,78.348
		c0.155-0.874,0.396-2.699,0.396-4.767c0-9.62-4.767-19.382-17.325-19.382c-13.512,0-19.623,10.882-19.623,20.736
		c0,12.159,7.542,19.784,20.736,19.784c5.258,0,10.093-0.798,14.067-2.461l-1.593-8.184c-3.256,1.113-6.583,1.671-10.728,1.671
		c-5.639,0-10.657-2.382-10.975-7.399L168.864,78.348L168.864,78.348z M112.69,93.924h12.067v-56.49H112.69V93.924z"/>
</g>
<polygon fill="#259CD3" points="98.401,48.999 86.201,36.791 74,48.999 61.799,61.198 49.599,73.4 37.391,61.198 25.198,48.999 
	12.99,36.791 0.783,48.999 12.99,61.198 25.198,73.4 37.391,85.608 49.599,97.808 61.799,85.608 74,73.4 86.201,61.198 "/>
<polygon fill="#259CD3" points="61.799,48.999 80.104,30.694 67.896,18.486 49.599,36.791 43.495,30.694 61.799,12.39 49.599,0.189 
	31.288,18.486 19.094,30.694 27.876,39.476 31.288,42.902 37.391,48.999 40.083,51.684 49.599,61.198 "/>
</svg>
